<svg width="200" height="76" viewBox="0 0 200 76" fill="none" xmlns="http://www.w3.org/2000/svg">
<g clip-path="url(#clip0_101_5)">
<path d="M16.9969 10.2976C16.9969 13.2739 16.0408 15.6163 14.1286 17.3247C12.2984 18.8975 9.93823 19.7241 7.52111 19.6389H5.19467V30.021H0V1.05664H7.73357C10.5664 1.05664 12.7972 1.8298 14.4261 3.37612C16.1399 4.99992 16.9969 7.30707 16.9969 10.2976ZM11.7969 10.3768C11.7969 7.53778 10.4265 6.11827 7.68577 6.11827H5.19467V14.5719H7.77075C10.4637 14.5719 11.8022 13.1612 11.8022 10.3451" fill="#004983"/>
<path d="M32.6287 8.98202L31.2158 13.7372C30.4141 13.061 29.3987 12.6869 28.3476 12.6805C27.1011 12.6805 26.0477 13.3004 25.1872 14.5403V30.0211H20.2847V8.31101H25.1872V9.80096C25.665 9.20101 26.2717 8.71501 26.9629 8.37858C27.654 8.04214 28.4121 7.8638 29.1815 7.85662C30.4226 7.85128 31.6321 8.24613 32.6287 8.98202Z" fill="#004983"/>
<path d="M41.1962 3.1014C41.2002 3.50816 41.1209 3.91148 40.9629 4.28668C40.8049 4.66188 40.5716 5.00107 40.2773 5.2835C39.9886 5.57185 39.6455 5.80065 39.2677 5.95677C38.8898 6.11289 38.4848 6.19325 38.0756 6.19325C37.6665 6.19325 37.2614 6.11289 36.8836 5.95677C36.5058 5.80065 36.1627 5.57185 35.874 5.2835C35.5791 4.99958 35.3459 4.65851 35.1887 4.28137C35.0316 3.90422 34.9539 3.49903 34.9604 3.09083C34.9542 2.68267 35.0321 2.27757 35.1892 1.90047C35.3463 1.52338 35.5794 1.18227 35.874 0.898159C36.1627 0.609809 36.5058 0.381009 36.8836 0.224889C37.2614 0.0687693 37.6665 -0.0115967 38.0756 -0.0115967C38.4848 -0.0115967 38.8898 0.0687693 39.2677 0.224889C39.6455 0.381009 39.9886 0.609809 40.2773 0.898159C40.5726 1.18201 40.8065 1.52295 40.9645 1.90002C41.1226 2.27709 41.2014 2.68234 41.1962 3.09083M40.5269 30.0369H35.6244V8.31097H40.5269V30.0369Z" fill="#004983"/>
<path d="M69.3366 30.021H64.4288V15.9615C64.4628 15.1724 64.4076 14.3819 64.2641 13.6051C64.1628 13.2317 63.9316 12.9061 63.6116 12.6865C63.2915 12.4668 62.9035 12.3673 62.5166 12.4057C61.4897 12.4057 60.5744 13.0116 59.7705 14.2232V30.021H54.868V15.9615C54.8993 15.1724 54.8441 14.3823 54.7034 13.6051C54.6021 13.2317 54.3709 12.9061 54.0508 12.6865C53.7308 12.4668 53.3428 12.3673 52.9559 12.4057C51.929 12.4057 51.0154 13.0116 50.2151 14.2232V30.021H45.3073V8.31096H50.2151V9.80092C51.4297 8.50822 52.731 7.8601 54.1191 7.85658C56.4455 7.85658 58.039 8.65615 58.8995 10.2553C60.3973 8.65263 61.9908 7.85306 63.6798 7.85658C65.8682 7.85658 67.3926 8.5452 68.253 9.92244C68.9701 11.0848 69.3154 13.0397 69.3154 15.7977L69.3366 30.021Z" fill="#004983"/>
<path d="M88.9095 19.1845C88.9095 19.6283 88.883 20.2359 88.8299 21.0073H77.8138C78.005 24.2303 79.1735 25.8418 81.3034 25.8418C82.6366 25.8418 83.768 25.2077 84.7134 23.9397L88.2084 26.5498C87.5173 27.7777 86.5004 28.7933 85.2687 29.4855C84.037 30.1778 82.6378 30.5202 81.2238 30.4754C80.0047 30.5202 78.7947 30.252 77.71 29.6968C76.6253 29.1416 75.7025 28.318 75.0305 27.3053C73.5858 25.294 72.8634 22.5783 72.8634 19.1581C72.8634 15.6005 73.6124 12.8038 75.1102 10.7678C75.7637 9.83555 76.6396 9.07915 77.6593 8.56645C78.679 8.05375 79.8107 7.80077 80.9529 7.83018C82.1818 7.80267 83.3952 8.10761 84.4635 8.71246C85.5318 9.31731 86.4149 10.1994 87.0186 11.2645C88.2934 13.3286 88.9308 15.9598 88.9308 19.1581M84.0283 16.9707C83.7273 13.8006 82.688 12.2155 80.9104 12.2155C79.1328 12.2155 78.1077 13.8006 77.835 16.9707H84.0283Z" fill="#004983"/>
<path d="M104.998 8.982L103.575 13.7372C102.773 13.061 101.758 12.6869 100.706 12.6805C99.4582 12.6805 98.4012 13.2987 97.5195 14.5403V30.0211H92.6117V8.31099H97.5195V9.80095C97.9968 9.20168 98.6026 8.7161 99.2928 8.37969C99.9829 8.04329 100.74 7.86457 101.508 7.8566C102.75 7.84744 103.961 8.23857 104.961 8.97143" fill="#004983"/>
<path d="M121.915 30.021H117.013V28.531C116.56 29.1369 115.97 29.6284 115.291 29.9661C114.612 30.3038 113.863 30.4783 113.104 30.4754C112.22 30.5087 111.34 30.342 110.53 29.9878C109.72 29.6336 109.002 29.1012 108.429 28.4306C107.25 27.0604 106.661 25.22 106.661 22.9093C106.572 20.9832 107.243 19.0988 108.53 17.6575C109.145 17.003 109.893 16.4871 110.725 16.1444C111.557 15.8017 112.453 15.6403 113.353 15.6709C114.63 15.6172 115.897 15.9172 117.013 16.5374V14.8836C117.013 13.0908 116.14 12.1961 114.394 12.1996C112.824 12.1875 111.288 12.6479 109.986 13.5205L107.994 9.96467C109.962 8.5824 112.314 7.84377 114.724 7.85125C119.522 7.85125 121.919 10.2641 121.915 15.0897V30.021ZM117.013 24.3042V20.8435C116.176 20.1417 115.111 19.7662 114.017 19.7868C113.688 19.7835 113.363 19.8562 113.067 19.9992C112.771 20.1423 112.513 20.3517 112.312 20.611C111.845 21.2446 111.61 22.0187 111.648 22.8037C111.648 25.0122 112.482 26.1112 114.145 26.1112C115.334 26.1112 116.29 25.5053 117.013 24.2936" fill="#004983"/>
<path d="M32.5277 63.0696H27.6199V49.0101C27.654 48.2209 27.5988 47.4305 27.4552 46.6536C27.3582 46.2777 27.1294 45.9486 26.8099 45.7258C26.4904 45.5029 26.1014 45.401 25.7131 45.4384C24.6826 45.4384 23.7673 46.046 22.967 47.2612V63.0537H18.0592V49.0101C18.0924 48.2207 18.0354 47.4302 17.8892 46.6536C17.7923 46.2786 17.5642 45.9503 17.2459 45.7276C16.9276 45.5049 16.5398 45.4023 16.1523 45.4384C15.1219 45.4384 14.2065 46.046 13.4063 47.2612V63.0537H8.49843V41.3648H13.401V42.8495C14.6226 41.5568 15.9257 40.9104 17.3102 40.9104C19.6367 40.9104 21.2301 41.7082 22.0906 43.3038C23.5814 41.7082 25.1748 40.9104 26.871 40.9104C29.0629 40.9104 30.589 41.599 31.4495 42.9763C32.1577 44.1316 32.5118 46.0883 32.5118 48.8463L32.5277 63.0696Z" fill="#004983"/>
<path d="M51.0225 63.0695H46.1199V61.5796C45.668 62.1867 45.0784 62.6791 44.3991 63.017C43.7199 63.3548 42.9701 63.5285 42.2106 63.5239C41.3268 63.5573 40.4468 63.3906 39.6371 63.0364C38.8275 62.6822 38.1092 62.1497 37.5365 61.4792C36.3573 60.116 35.7678 58.2756 35.7678 55.9579C35.6833 54.0372 36.3538 52.1592 37.6374 50.7219C38.2534 50.0695 39.0022 49.5552 39.8339 49.2136C40.6656 48.8719 41.561 48.7106 42.4603 48.7406C43.7375 48.6841 45.0052 48.9843 46.1199 49.6071V47.9375C46.1199 46.1481 45.2471 45.2517 43.5013 45.2482C41.9334 45.2377 40.3988 45.6981 39.0981 46.569L37.101 43.0185C39.0693 41.6362 41.4213 40.8976 43.8307 40.9051C48.6287 40.9051 51.026 43.3161 51.0225 48.1383V63.0695ZM46.1199 57.3633V53.892C45.2853 53.1902 44.2223 52.8145 43.1295 52.8353C42.7987 52.833 42.4721 52.9089 42.1766 53.0568C41.8811 53.2047 41.6251 53.4204 41.4299 53.686C40.957 54.3171 40.7203 55.0925 40.7606 55.8786C40.7606 58.0836 41.5927 59.1861 43.257 59.1861C44.4468 59.1861 45.4029 58.5785 46.1252 57.3633" fill="#004983"/>
<path d="M67.69 42.0252L66.2771 46.7804C65.4763 46.1026 64.4604 45.7283 63.4089 45.7237C62.1625 45.7237 61.1108 46.3454 60.2539 47.5888V63.0907H55.346V41.3648H60.2539V42.8495C60.7337 42.2469 61.3439 41.7596 62.0391 41.4239C62.7343 41.0882 63.4966 40.9127 64.2694 40.9104C65.5099 40.8986 66.7203 41.29 67.7166 42.0252" fill="#004983"/>
<path d="M84.7772 45.8293L80.8254 48.4711C79.9968 46.5127 78.9717 45.5335 77.75 45.5335C75.6715 45.5335 74.6322 47.7525 74.6322 52.1907C74.6322 56.6289 75.7263 58.8621 77.9147 58.8903C79.1895 58.8903 80.2465 57.8335 81.075 55.7201L84.6922 58.3249C83.1943 61.8015 80.9228 63.538 77.8775 63.5345C76.7301 63.5689 75.5917 63.3229 74.562 62.8182C73.5323 62.3134 72.6427 61.5652 71.9711 60.6391C70.4201 58.6595 69.6447 55.8751 69.6447 52.2858C69.6447 48.6965 70.4201 45.8786 71.9711 43.8322C72.6292 42.9049 73.5061 42.1526 74.5249 41.6413C75.5436 41.13 76.673 40.8754 77.8138 40.8998C81.0786 40.8998 83.3926 42.5395 84.7559 45.8188" fill="#004983"/>
<path d="M103.15 63.0696H98.2631V49.0101C98.3012 48.2064 98.2297 47.4013 98.0507 46.6167C97.9174 46.241 97.6598 45.9214 97.3202 45.7102C96.9806 45.4991 96.5789 45.4088 96.181 45.4543C95.0444 45.4543 94.0564 46.0619 93.2703 47.2771V63.0696H88.3678V35.3997L93.2703 32.964V42.8495C93.7722 42.2572 94.395 41.778 95.0974 41.4437C95.7998 41.1093 96.5657 40.9276 97.3442 40.9104C99.5645 40.9104 101.117 41.5991 102.002 42.9763C102.778 44.1598 103.166 46.1165 103.166 48.8463L103.15 63.0696Z" fill="#004983"/>
<path d="M121.634 63.0695H116.731V61.5796C116.279 62.1863 115.689 62.6786 115.01 63.0164C114.331 63.3542 113.581 63.5281 112.822 63.5239C111.938 63.5573 111.058 63.3906 110.248 63.0364C109.439 62.6822 108.721 62.1497 108.148 61.4792C106.969 60.116 106.379 58.2756 106.379 55.9579C106.298 54.0357 106.972 52.1576 108.259 50.7219C108.875 50.0689 109.624 49.5543 110.456 49.2126C111.287 48.8709 112.183 48.7099 113.082 48.7406C114.359 48.6847 115.627 48.9848 116.742 49.6071V47.9375C116.742 46.1481 115.867 45.2517 114.118 45.2481C112.55 45.2394 111.016 45.6996 109.715 46.569L107.718 43.0185C109.688 41.6371 112.042 40.8986 114.453 40.9051C119.24 40.9086 121.634 43.3214 121.634 48.1435V63.0695ZM116.731 57.3633V53.892C115.894 53.1902 114.83 52.8147 113.736 52.8353C113.406 52.8326 113.081 52.9062 112.785 53.0501C112.489 53.1941 112.231 53.4045 112.031 53.6648C111.562 54.2979 111.328 55.0724 111.367 55.8575C111.367 58.0625 112.199 59.165 113.863 59.165C115.053 59.165 116.009 58.5574 116.731 57.3422" fill="#004983"/>
<path d="M9.6351 70.8945V71.7293V72.5641H10.4956V73.3144H9.6351V74.1439V74.9892H11.3613V75.7395H8.87555V70.1337H11.3613V70.8945H10.5221H9.6351Z" fill="#0B4051"/>
<path d="M16.317 72.9815C16.4478 73.0902 16.5607 73.2186 16.6516 73.3619C16.8132 73.6195 16.8988 73.9169 16.8988 74.2205C16.8988 74.5241 16.8132 74.8215 16.6516 75.0791C16.5129 75.281 16.3316 75.4505 16.1205 75.5757C15.8653 75.7433 15.5658 75.8316 15.26 75.8293C14.9529 75.8296 14.6522 75.7415 14.3942 75.5757C14.1888 75.4523 14.0159 75.2821 13.8896 75.0791C13.723 74.8224 13.6344 74.5234 13.6347 74.2179H14.3889C14.3901 74.4402 14.4799 74.653 14.6386 74.8096C14.7974 74.9661 15.01 75.0568 15.2334 75.0632H15.2759C15.4963 75.0568 15.7056 74.9659 15.8602 74.8096C15.9404 74.733 16.0044 74.6412 16.0482 74.5395C16.092 74.4379 16.1148 74.3285 16.1152 74.2179V74.1756C16.1165 74.0387 16.0817 73.9039 16.0142 73.7846C15.9484 73.6646 15.8535 73.5629 15.738 73.4887C15.6255 73.4121 15.4962 73.3632 15.3609 73.3461H15.1644C14.8882 73.3383 14.6197 73.2541 14.3889 73.103C14.3253 73.0638 14.265 73.0196 14.2083 72.9709C14.0797 72.8651 13.9701 72.7382 13.8843 72.5958C13.7196 72.3404 13.632 72.0433 13.632 71.7399C13.632 71.4364 13.7196 71.1393 13.8843 70.8839C14.0106 70.6725 14.1831 70.4919 14.3889 70.3556C14.6469 70.1898 14.9476 70.1017 15.2547 70.102C15.5605 70.0997 15.86 70.188 16.1152 70.3556C16.3462 70.5002 16.5369 70.7005 16.6697 70.9378C16.8024 71.1751 16.8729 71.4419 16.8747 71.7135H16.1364C16.131 71.4937 16.0409 71.2845 15.8846 71.1291C15.7284 70.9737 15.5181 70.884 15.2972 70.8787C15.1837 70.8775 15.0713 70.9009 14.9679 70.9473C14.8685 70.9897 14.7784 71.0507 14.7023 71.127C14.6249 71.2021 14.5635 71.292 14.5217 71.3912C14.4775 71.493 14.4541 71.6025 14.4527 71.7135C14.4525 71.8525 14.4891 71.9892 14.5589 72.1097C14.6215 72.2334 14.717 72.3376 14.8351 72.4109C14.9508 72.4882 15.0841 72.5354 15.2228 72.5483H15.4034C15.6563 72.5771 15.8995 72.662 16.1152 72.7966C16.1778 72.8353 16.2381 72.8776 16.2957 72.9234" fill="#0B4051"/>
<path d="M21.7772 74.2179H22.5421C22.5423 74.5234 22.4538 74.8225 22.2871 75.0791C22.1484 75.281 21.9672 75.4505 21.756 75.5758C21.4992 75.7396 21.2006 75.8267 20.8955 75.8267C20.5905 75.8267 20.2918 75.7396 20.0351 75.5758C19.8239 75.4505 19.6426 75.281 19.5039 75.0791C19.3391 74.8219 19.2525 74.5229 19.2543 74.2179V71.7452C19.2508 71.4433 19.3377 71.1472 19.5039 70.8946C19.6383 70.6805 19.8199 70.4998 20.0351 70.3662C20.2918 70.2023 20.5905 70.1152 20.8955 70.1152C21.2006 70.1152 21.4992 70.2023 21.756 70.3662C21.9736 70.4967 22.1559 70.6781 22.2871 70.8946C22.4549 71.1467 22.5437 71.4428 22.5421 71.7452H21.7772C21.7777 71.6357 21.7558 71.5273 21.7129 71.4265C21.67 71.3257 21.607 71.2346 21.5276 71.1587C21.4508 71.0805 21.3591 71.0183 21.2579 70.9756C21.1567 70.933 21.0479 70.9108 20.938 70.9104C20.7167 70.9145 20.5056 71.0037 20.3491 71.1594C20.1926 71.3151 20.1029 71.5251 20.0988 71.7452V74.1651C20.0982 74.2753 20.12 74.3846 20.1629 74.4863C20.2058 74.588 20.2689 74.68 20.3484 74.7568C20.5047 74.9139 20.7159 75.0048 20.938 75.0104H20.9805C21.2021 75.0026 21.4126 74.9121 21.5701 74.7568C21.699 74.6122 21.7724 74.427 21.7772 74.2338V74.2179Z" fill="#0B4051"/>
<path d="M27.4021 70.1337H28.1511V74.2179C28.1515 74.493 28.0821 74.7638 27.9492 75.0051C27.8225 75.2362 27.64 75.4323 27.4181 75.5757C27.1607 75.7407 26.8611 75.8284 26.5549 75.8284C26.2488 75.8284 25.9492 75.7407 25.6918 75.5757C25.4569 75.4438 25.2596 75.2548 25.1182 75.0262C24.9853 74.7849 24.9159 74.5141 24.9163 74.239V70.1548H25.6759V74.2126C25.6753 74.3631 25.7157 74.511 25.7927 74.6405C25.8726 74.7668 25.9819 74.8719 26.1114 74.947C26.2406 75.0211 26.3873 75.0594 26.5364 75.0579C26.649 75.06 26.7609 75.039 26.865 74.9963C26.9692 74.9535 27.0634 74.89 27.1419 74.8096C27.3047 74.6528 27.3984 74.438 27.4021 74.2126V70.1125V70.1337Z" fill="#0B4051"/>
<path d="M31.338 70.8945V71.7293V72.5641H32.1931V73.3144H31.338V74.1439V74.9892H33.0589V75.7395H30.5466V70.1337H33.0323V70.8945H32.1931H31.338Z" fill="#0B4051"/>
<path d="M37.0744 75.0791H37.9136V75.8346H35.4278V70.1337H36.1874V74.1914V75.0368H37.0744V75.0791Z" fill="#0B4051"/>
<path d="M42.7949 70.3873C42.9098 70.4583 43.0151 70.5435 43.1083 70.6409C43.1996 70.7362 43.2781 70.8427 43.342 70.9579C43.4093 71.0759 43.461 71.202 43.496 71.3331C43.5366 71.4667 43.5563 71.6056 43.5545 71.7452V75.8294H42.7949V73.362H41.0687V75.8294H40.3091V71.7452C40.3071 71.4708 40.3786 71.2009 40.5163 70.9632C40.6397 70.7284 40.8228 70.5298 41.0474 70.3873C41.3054 70.2216 41.6061 70.1335 41.9132 70.1337C42.219 70.1314 42.5185 70.2197 42.7737 70.3873M42.7737 71.7716V71.7293C42.773 71.6175 42.7496 71.507 42.7049 71.4044C42.6601 71.3018 42.595 71.2092 42.5134 71.1323C42.4342 71.0529 42.3398 70.99 42.2358 70.9474C42.1319 70.9047 42.0204 70.8832 41.9079 70.884C41.7961 70.8827 41.6853 70.904 41.5821 70.9467C41.4789 70.9894 41.3856 71.0526 41.3077 71.1323C41.2261 71.2092 41.161 71.3018 41.1162 71.4044C41.0715 71.507 41.0481 71.6175 41.0474 71.7293V72.5641H42.7737V71.7716Z" fill="#0B4051"/>
<path d="M52.6212 70.8945C52.789 71.1467 52.8778 71.4427 52.8762 71.7451V74.2178C52.8764 74.5234 52.7879 74.8224 52.6212 75.0791C52.4907 75.2786 52.3186 75.448 52.1166 75.5757C51.8587 75.7415 51.558 75.8296 51.2509 75.8293H49.6574V70.1337H51.2509C51.558 70.1334 51.8587 70.2215 52.1166 70.3873C52.325 70.5206 52.498 70.7018 52.6212 70.9156M52.1166 74.2337V71.7504C52.1161 71.6406 52.0933 71.532 52.0495 71.4313C52.0056 71.3305 51.9418 71.2395 51.8617 71.164C51.7849 71.0857 51.6932 71.0235 51.592 70.9809C51.4908 70.9382 51.382 70.9161 51.2721 70.9156H50.3904V71.7504V74.1703V75.0157H51.2721C51.4937 75.0079 51.7042 74.9173 51.8617 74.762C51.9419 74.6855 52.0059 74.5936 52.0497 74.492C52.0935 74.3903 52.1162 74.2809 52.1166 74.1703V74.2337Z" fill="#0B4051"/>
<path d="M56.0206 70.8945V71.7293V72.5641H56.8811V73.3144H56.0206V74.1439V74.9892H57.7468V75.7395H55.2398V70.1337H57.7256V70.8945H56.8864H56.0206Z" fill="#0B4051"/>
<path d="M66.3143 74.2179H67.0739C67.0741 74.5234 66.9856 74.8225 66.8189 75.0791C66.6828 75.2833 66.501 75.4533 66.2878 75.5758C66.0326 75.7434 65.7331 75.8317 65.4273 75.8294C65.1202 75.8296 64.8195 75.7415 64.5615 75.5758C64.3579 75.4501 64.1855 75.2803 64.0569 75.0791C63.8903 74.8225 63.8018 74.5234 63.802 74.2179V71.7452C63.8004 71.4428 63.8892 71.1467 64.0569 70.8946C64.1816 70.6818 64.3544 70.5009 64.5615 70.3662C64.8195 70.2004 65.1202 70.1124 65.4273 70.1126C65.7331 70.1103 66.0326 70.1986 66.2878 70.3662C66.5071 70.4946 66.6899 70.6764 66.8189 70.8946C66.9867 71.1467 67.0755 71.4428 67.0739 71.7452H66.3143C66.3089 71.5255 66.2188 71.3163 66.0626 71.1609C65.9063 71.0054 65.696 70.9158 65.4751 70.9104C65.3643 70.9098 65.2544 70.9315 65.1522 70.9742C65.05 71.0169 64.9575 71.0796 64.8802 71.1587C64.8018 71.2353 64.7394 71.3265 64.6966 71.4272C64.6537 71.5278 64.6313 71.6359 64.6306 71.7452V74.1651C64.6318 74.3874 64.7216 74.6002 64.8802 74.7568C65.0384 74.9142 65.2514 75.005 65.4751 75.0104H65.5176C65.7379 75.004 65.9473 74.9131 66.1019 74.7568C66.1821 74.6803 66.246 74.5884 66.2898 74.4867C66.3336 74.3851 66.3564 74.2757 66.3568 74.1651L66.3143 74.2179Z" fill="#0B4051"/>
<path d="M71.9499 70.3873C72.062 70.4598 72.1653 70.5449 72.2579 70.6409C72.3492 70.7373 72.4294 70.8437 72.4969 70.9579C72.5642 71.0759 72.616 71.2019 72.651 71.333C72.6889 71.4672 72.7086 71.6058 72.7094 71.7451V74.2178C72.708 74.3981 72.6756 74.5768 72.6138 74.7462C72.552 74.9181 72.4623 75.0787 72.3482 75.2217C72.235 75.3569 72.1004 75.4728 71.9499 75.5651C71.6919 75.7309 71.3912 75.819 71.0841 75.8187C70.7783 75.821 70.4788 75.7328 70.2236 75.5651C69.9919 75.4252 69.8 75.2288 69.6659 74.9945C69.531 74.754 69.4614 74.4827 69.4641 74.2073V71.7346C69.4601 71.4607 69.5298 71.1907 69.6659 70.9526C69.7993 70.7164 69.9913 70.5181 70.2236 70.3767C70.4788 70.2091 70.7783 70.1208 71.0841 70.1231C71.3912 70.1229 71.6919 70.2109 71.9499 70.3767M71.9499 74.202V71.7187C71.9441 71.4926 71.8486 71.278 71.6843 71.1217C71.5241 70.9633 71.3073 70.8743 71.0814 70.8743C70.8555 70.8743 70.6388 70.9633 70.4786 71.1217C70.3986 71.1996 70.335 71.2925 70.2912 71.3949C70.2475 71.4974 70.2245 71.6074 70.2236 71.7187V74.1386C70.2205 74.2894 70.2611 74.438 70.3405 74.5666C70.4199 74.6913 70.5271 74.7961 70.6538 74.873C70.7834 74.9459 70.9299 74.9842 71.0788 74.9839C71.1915 74.9866 71.3035 74.9659 71.4078 74.9232C71.512 74.8804 71.6062 74.8165 71.6843 74.7356C71.8486 74.5793 71.9441 74.3647 71.9499 74.1386V74.202Z" fill="#0B4051"/>
<path d="M77.5535 70.1389H78.313V75.8293H77.5216L75.8538 71.9089V75.8293H75.0943V70.1389H75.8538L77.5535 74.128V70.1389Z" fill="#0B4051"/>
<path d="M83.6936 70.8945C83.8614 71.1467 83.9502 71.4428 83.9486 71.7452V74.2179C83.9488 74.5234 83.8603 74.8225 83.6936 75.0791C83.5651 75.2803 83.3926 75.4501 83.189 75.5758C82.932 75.7435 82.6307 75.8318 82.3233 75.8294H80.7032V70.1337H82.3286C82.636 70.1313 82.9373 70.2196 83.1944 70.3873C83.4039 70.5192 83.5773 70.7007 83.6989 70.9157M83.1944 74.2337V71.7505C83.1938 71.6407 83.171 71.5321 83.1272 71.4313C83.0833 71.3305 83.0195 71.2396 82.9394 71.164C82.8626 71.0858 82.7709 71.0235 82.6697 70.9809C82.5685 70.9383 82.4597 70.9161 82.3498 70.9157H81.5053V71.7505V74.1703V75.0157H82.3286C82.5502 75.0079 82.7607 74.9174 82.9182 74.7621C82.9984 74.6855 83.0623 74.5937 83.1061 74.492C83.1499 74.3903 83.1727 74.2809 83.1731 74.1703L83.1944 74.2337Z" fill="#0B4051"/>
<path d="M88.8193 70.1337H89.5788V74.2179C89.5793 74.493 89.5099 74.7638 89.377 75.0051C89.2429 75.2394 89.0509 75.4358 88.8193 75.5758C88.5641 75.7434 88.2646 75.8317 87.9588 75.8294C87.655 75.8203 87.3601 75.725 87.1089 75.5546C86.8857 75.4128 86.7028 75.2163 86.5778 74.984C86.441 74.744 86.3696 74.4726 86.3706 74.1968V70.1126H87.1089V74.1703C87.1078 74.3217 87.1501 74.4702 87.2311 74.5983C87.3089 74.7243 87.4165 74.8295 87.5445 74.9048C87.6738 74.9784 87.8204 75.0167 87.9694 75.0157C88.0821 75.0177 88.1939 74.9967 88.2981 74.954C88.4022 74.9113 88.4964 74.8478 88.5749 74.7674C88.6565 74.6905 88.7216 74.5979 88.7664 74.4953C88.8111 74.3927 88.8345 74.2822 88.8352 74.1703V70.0703L88.8193 70.1337Z" fill="#0B4051"/>
<path d="M94.4548 74.2179H95.2143C95.2145 74.5234 95.126 74.8225 94.9593 75.0791C94.8288 75.2787 94.6567 75.448 94.4548 75.5758C94.1968 75.7415 93.8961 75.8296 93.589 75.8294C93.2832 75.8317 92.9837 75.7434 92.7285 75.5758C92.5153 75.4533 92.3334 75.2833 92.1974 75.0791C92.0307 74.8225 91.9422 74.5234 91.9424 74.2179V71.7452C91.9408 71.4428 92.0296 71.1467 92.1974 70.8946C92.3295 70.6788 92.5117 70.4977 92.7285 70.3662C92.9837 70.1986 93.2832 70.1103 93.589 70.1126C93.8961 70.1124 94.1968 70.2004 94.4548 70.3662C94.6838 70.513 94.873 70.7137 95.0055 70.9505C95.1379 71.1874 95.2097 71.4531 95.2143 71.7241H94.4548C94.4542 71.6143 94.4314 71.5057 94.3876 71.4049C94.3438 71.3041 94.2799 71.2132 94.1998 71.1376C94.123 71.0594 94.0313 70.9971 93.9301 70.9545C93.8289 70.9119 93.7201 70.8897 93.6102 70.8893C93.5002 70.8888 93.3912 70.9106 93.2898 70.9532C93.1885 70.9959 93.0969 71.0587 93.0206 71.1376C92.9422 71.2142 92.8798 71.3054 92.837 71.4061C92.7941 71.5067 92.7717 71.6148 92.771 71.7241V74.1439C92.7722 74.3663 92.862 74.5791 93.0206 74.7357C93.1769 74.8928 93.3882 74.9836 93.6102 74.9893H93.6527C93.8743 74.9815 94.0848 74.891 94.2423 74.7357C94.3225 74.6591 94.3864 74.5673 94.4302 74.4656C94.4741 74.3639 94.4968 74.2545 94.4972 74.1439L94.4548 74.2179Z" fill="#0B4051"/>
<path d="M97.5992 70.1337H100.845V70.8945H99.6016V75.7871C99.4778 75.8144 99.3514 75.8286 99.2245 75.8293C99.0959 75.8283 98.9678 75.8142 98.8421 75.7871V70.8945H97.5992V70.1337Z" fill="#0B4051"/>
<path d="M105.359 70.3873C105.472 70.4586 105.576 70.5438 105.667 70.6409C105.762 70.7346 105.842 70.8414 105.906 70.9579C105.974 71.0759 106.025 71.2019 106.06 71.333C106.098 71.4672 106.118 71.6058 106.119 71.7451V74.2178C106.117 74.3981 106.085 74.5767 106.023 74.7462C105.906 75.0883 105.671 75.3783 105.359 75.5651C105.102 75.7301 104.802 75.8178 104.496 75.8178C104.19 75.8178 103.89 75.7301 103.633 75.5651C103.401 75.4252 103.209 75.2288 103.075 74.9945C102.942 74.7532 102.873 74.4824 102.874 74.2073V71.7346C102.872 71.4609 102.941 71.1915 103.075 70.9526C103.209 70.7164 103.401 70.5181 103.633 70.3767C103.89 70.2117 104.19 70.124 104.496 70.124C104.802 70.124 105.102 70.2117 105.359 70.3767M105.359 74.202V71.7187C105.356 71.4933 105.262 71.2785 105.099 71.1217C105.02 71.0423 104.925 70.9794 104.821 70.9367C104.718 70.8941 104.606 70.8725 104.494 70.8733C104.382 70.872 104.271 70.8934 104.168 70.9361C104.065 70.9788 103.971 71.0419 103.893 71.1217C103.812 71.1986 103.747 71.2911 103.702 71.3937C103.657 71.4963 103.634 71.6069 103.633 71.7187V74.1386C103.633 74.2891 103.673 74.437 103.75 74.5665C103.83 74.6928 103.939 74.7979 104.069 74.873C104.198 74.9471 104.344 74.9854 104.494 74.9839C104.606 74.986 104.718 74.965 104.822 74.9222C104.926 74.8795 105.021 74.816 105.099 74.7356C105.262 74.5788 105.356 74.364 105.359 74.1386V74.202Z" fill="#0B4051"/>
<path d="M110.729 73.251L111.823 75.8294H111.074L110.012 73.3567H109.258V75.8241H108.498V70.1337H110.118C110.426 70.1307 110.727 70.219 110.984 70.3873C111.199 70.521 111.381 70.7017 111.515 70.9157C111.68 71.1711 111.768 71.4682 111.768 71.7716C111.768 72.0751 111.68 72.3722 111.515 72.6276C111.428 72.7702 111.316 72.897 111.186 73.0027C111.131 73.0538 111.071 73.0981 111.005 73.1348C110.923 73.1888 110.836 73.2348 110.745 73.2722M110.214 72.6276C110.353 72.6147 110.486 72.5675 110.602 72.4902C110.72 72.4156 110.817 72.3119 110.883 72.189C110.955 72.0694 110.992 71.9321 110.99 71.7928V71.7505C110.984 71.5308 110.894 71.3216 110.738 71.1661C110.582 71.0107 110.371 70.9211 110.15 70.9157H109.306V72.6276H110.257H110.214Z" fill="#0B4051"/>
<path d="M114.978 70.8945V71.7293V72.5641H115.839V73.3144H114.978V74.1439V74.9892H116.705V75.7395H114.198V70.1337H116.683V70.8945H115.844H114.978Z" fill="#0B4051"/>
<path d="M121.66 72.9815C121.788 73.093 121.901 73.2209 121.995 73.3619C122.157 73.6182 122.242 73.9152 122.239 74.2178C122.24 74.5234 122.151 74.8224 121.984 75.0791C121.856 75.2803 121.683 75.45 121.48 75.5757C121.222 75.7407 120.923 75.8284 120.617 75.8284C120.311 75.8284 120.011 75.7407 119.754 75.5757C119.537 75.4573 119.355 75.2865 119.222 75.0791C119.056 74.8224 118.967 74.5234 118.967 74.2178H119.722C119.723 74.4402 119.813 74.653 119.971 74.8096C120.13 74.967 120.343 75.0578 120.566 75.0632H120.603C120.825 75.0554 121.035 74.9649 121.193 74.8096C121.273 74.733 121.337 74.6412 121.381 74.5395C121.425 74.4378 121.448 74.3285 121.448 74.2178V74.1756C121.447 74.0391 121.412 73.9049 121.347 73.7846C121.281 73.6646 121.186 73.5629 121.071 73.4887C120.958 73.413 120.829 73.3642 120.694 73.3461H120.497C120.221 73.3383 119.952 73.2541 119.722 73.103C119.658 73.0637 119.598 73.0196 119.541 72.9709C119.412 72.8651 119.303 72.7382 119.217 72.5958C119.052 72.3404 118.965 72.0433 118.965 71.7399C118.965 71.4364 119.052 71.1393 119.217 70.8839C119.349 70.6682 119.531 70.4871 119.748 70.3556C120.006 70.1906 120.305 70.1029 120.611 70.1029C120.917 70.1029 121.217 70.1906 121.474 70.3556C121.684 70.4874 121.857 70.669 121.979 70.8839C122.147 71.1361 122.236 71.4322 122.234 71.7346H121.474C121.474 71.6248 121.451 71.5162 121.407 71.4154C121.363 71.3146 121.3 71.2237 121.22 71.1481C121.143 71.0699 121.051 71.0076 120.95 70.965C120.849 70.9224 120.74 70.9002 120.63 70.8998C120.516 70.8986 120.404 70.922 120.301 70.9685C120.201 71.0108 120.111 71.0718 120.035 71.1481C119.958 71.2232 119.896 71.3131 119.854 71.4123C119.808 71.5133 119.784 71.6234 119.785 71.7346C119.786 71.8729 119.821 72.0089 119.886 72.1308C119.953 72.2537 120.049 72.3574 120.168 72.432C120.284 72.5093 120.417 72.5565 120.556 72.5694H120.8C121.053 72.5983 121.296 72.6831 121.512 72.8177L121.692 72.9445" fill="#0B4051"/>
<path d="M164.758 56.9089C165.739 57.1274 166.757 57.1274 167.738 56.9089L167.424 54.0928C167.038 54.1566 166.647 54.1884 166.256 54.1879C165.866 54.1869 165.477 54.1533 165.093 54.0875L164.758 56.9089Z" fill="#004983"/>
<path d="M167.228 52.381L166.989 50.2676C166.755 50.2676 166.511 50.2993 166.272 50.2993C166.033 50.2993 165.788 50.2993 165.549 50.2623L165.295 52.3757C165.615 52.4216 165.938 52.4463 166.261 52.4497C166.585 52.4502 166.907 52.429 167.228 52.3863" fill="#004983"/>
<path d="M166.251 59.033C165.642 59.0281 165.037 58.9464 164.45 58.7899L164.046 62.2031C165.484 62.5793 166.996 62.5793 168.434 62.2031L168.051 58.7847C167.464 58.9402 166.858 59.0184 166.251 59.0171" fill="#004983"/>
<path d="M166.373 21.3401C161.599 21.3239 156.968 22.9621 153.276 25.9733C149.584 28.9844 147.062 33.1806 146.142 37.8407C145.223 42.5009 145.964 47.3341 148.237 51.5099C150.511 55.6858 154.176 58.9436 158.602 60.7236L163.696 48.1858C165.304 48.837 167.1 48.8615 168.726 48.2545L173.713 60.7765C178.178 59.0626 181.899 55.8501 184.234 51.6949C186.569 47.5397 187.369 42.7033 186.498 38.0228C185.626 33.3422 183.137 29.1122 179.461 26.0647C175.784 23.0172 171.153 21.344 166.367 21.3348M158.931 47.6944L158.156 49.6124L156.998 52.476L156.313 54.1668C154.719 53.0361 152.419 49.5754 152.419 49.5754C152.005 48.9173 151.769 48.1637 151.734 47.388C151.743 46.6793 151.963 45.989 152.365 45.4041C152.768 44.8192 153.335 44.3658 153.996 44.1009C154.657 43.836 155.382 43.7715 156.079 43.9155C156.777 44.0594 157.416 44.4055 157.917 44.91L157.997 44.9945C158.347 45.3485 159.478 46.2679 159.478 46.2679L158.931 47.6944ZM166.304 44.3235C165.795 44.3225 165.298 44.1713 164.876 43.8892C164.454 43.6071 164.125 43.2068 163.931 42.7388C163.738 42.2708 163.688 41.7563 163.789 41.2603C163.89 40.7643 164.136 40.3091 164.497 39.9525C164.858 39.5958 165.317 39.3536 165.816 39.2565C166.315 39.1595 166.832 39.2119 167.301 39.4073C167.771 39.6026 168.171 39.932 168.452 40.3538C168.733 40.7756 168.882 41.2709 168.88 41.7769C168.877 42.4542 168.604 43.1027 168.121 43.5801C167.638 44.0576 166.985 44.3249 166.304 44.3235ZM180.146 49.6652C180.146 49.6652 177.824 53.1153 176.22 54.2302L175.551 52.5394L174.414 49.6652L173.65 47.742L173.081 46.2996C173.081 46.2996 174.218 45.4384 174.558 45.0685L174.638 44.9787C175.14 44.4677 175.785 44.1175 176.489 43.9729C177.193 43.8284 177.924 43.8961 178.589 44.1672C179.254 44.4384 179.823 44.9009 180.222 45.4953C180.621 46.0898 180.833 46.7892 180.831 47.5042C180.795 48.2715 180.559 49.0162 180.146 49.6652ZM174.425 40.5564C174.074 40.5299 173.219 40.308 172.63 38.892C172.078 37.6904 171.191 36.6713 170.075 35.955C168.959 35.2388 167.66 34.8555 166.332 34.8505C165.004 34.8455 163.702 35.219 162.581 35.9268C161.46 36.6346 160.565 37.6471 160.004 38.8445C159.404 40.2552 158.549 40.4665 158.193 40.493L150.497 40.4665C150.82 36.507 152.633 32.8147 155.574 30.127C158.515 27.4393 162.367 25.9542 166.361 25.9682C170.354 25.9822 174.195 27.4943 177.117 30.2026C180.039 32.9108 181.826 36.6158 182.121 40.5775L174.425 40.5564Z" fill="#004983"/>
<path d="M164.174 17.0816L163.643 8.41663C155.692 9.00972 148.204 12.3689 142.494 17.9048C136.784 23.4407 133.216 30.7999 132.416 38.6913L141.148 39.188C141.82 33.4195 144.484 28.062 148.686 24.0301C152.887 19.9983 158.365 17.5424 164.184 17.0816" fill="#0F72B8"/>
<path d="M191.247 39.4891L199.958 38.9608C199.232 31.1224 195.774 23.7829 190.184 18.2121C184.593 12.6412 177.221 9.18934 169.342 8.45361L168.843 17.1239C174.586 17.7346 179.944 20.2878 184.022 24.3567C188.1 28.4257 190.65 33.7637 191.247 39.4786" fill="#F6AA06"/>
<path d="M141.037 43.9009L132.326 44.4293C132.895 52.466 136.335 60.0351 142.025 65.7686C147.715 71.5022 155.279 75.022 163.351 75.692L163.844 67.0217C157.907 66.4727 152.357 63.8474 148.181 59.6123C144.005 55.3772 141.474 49.8066 141.037 43.8904" fill="#89BD3E"/>
<path d="M168.609 67.027L169.14 75.692C177.145 74.9897 184.64 71.4845 190.29 65.8002C195.94 60.1159 199.379 52.6215 199.995 44.6512L191.278 44.1598C190.788 50.0088 188.249 55.5011 184.106 59.6798C179.962 63.8584 174.476 66.4585 168.604 67.027" fill="#E84D53"/>
</g>
<defs>
<clipPath id="clip0_101_5">
<rect width="200" height="75.8294" fill="white"/>
</clipPath>
</defs>
</svg>
